ffmpeg version 7.1.1-essentials_build-www.gyan.dev Copyright (c) 2000-2025 the FFmpeg developers
  built with gcc 14.2.0 (Rev1, Built by MSYS2 project)
  configuration: --enable-gpl --enable-version3 --enable-static --disable-w32threads --disable-autodetect --enable-fontconfig --enable-iconv --enable-gnutls --enable-libxml2 --enable-gmp --enable-bzlib --enable-lzma --enable-zlib --enable-libsrt --enable-libssh --enable-libzmq --enable-avisynth --enable-sdl2 --enable-libwebp --enable-libx264 --enable-libx265 --enable-libxvid --enable-libaom --enable-libopenjpeg --enable-libvpx --enable-mediafoundation --enable-libass --enable-libfreetype --enable-libfribidi --enable-libharfbuzz --enable-libvidstab --enable-libvmaf --enable-libzimg --enable-amf --enable-cuda-llvm --enable-cuvid --enable-dxva2 --enable-d3d11va --enable-d3d12va --enable-ffnvcodec --enable-libvpl --enable-nvdec --enable-nvenc --enable-vaapi --enable-libgme --enable-libopenmpt --enable-libopencore-amrwb --enable-libmp3lame --enable-libtheora --enable-libvo-amrwbenc --enable-libgsm --enable-libopencore-amrnb --enable-libopus --enable-libspeex --enable-libvorbis --enable-librubberband
  libavutil      59. 39.100 / 59. 39.100
  libavcodec     61. 19.101 / 61. 19.101
  libavformat    61.  7.100 / 61.  7.100
  libavdevice    61.  3.100 / 61.  3.100
  libavfilter    10.  4.100 / 10.  4.100
  libswscale      8.  3.100 /  8.  3.100
  libswresample   5.  3.100 /  5.  3.100
  libpostproc    58.  3.100 / 58.  3.100
[mov,mp4,m4a,3gp,3g2,mj2 @ 000001552b659f00] Auto-inserting h264_mp4toannexb bitstream filter
Input #0, concat, from 'C:\xampp\htdocs\gero_gpt\php/temp_video_list.txt':
  Duration: N/A, start: 0.000000, bitrate: 1655 kb/s
  Stream #0:0(eng): Video: h264 (High) (avc1 / 0x31637661), yuv420p(tv, bt709, progressive), 464x848, 1590 kb/s, 29.58 fps, 30 tbr, 90k tbn
      Metadata:
        creation_time   : 2024-10-18T05:10:06.000000Z
        handler_name    : VideoHandle
        vendor_id       : [0][0][0][0]
  Stream #0:1(eng): Audio: aac (LC) (mp4a / 0x6134706D), 44100 Hz, stereo, fltp, 65 kb/s
      Metadata:
        creation_time   : 2024-10-18T05:10:06.000000Z
        handler_name    : SoundHandle
        vendor_id       : [0][0][0][0]
Fontconfig error: Cannot load default config file: No such file: (null)
Stream mapping:
  Stream #0:0 -> #0:0 (h264 (native) -> h264 (libx264))
  Stream #0:1 -> #0:1 (aac (native) -> aac (native))
Press [q] to stop, [?] for help
Fontconfig error: Cannot load default config file: No such file: (null)
[libx264 @ 000001552bda5800] using cpu capabilities: MMX2 SSE2Fast SSSE3 SSE4.2 AVX FMA3 BMI2 AVX2
[libx264 @ 000001552bda5800] profile High, level 3.1, 4:2:0, 8-bit
[libx264 @ 000001552bda5800] 264 - core 164 r3204 373697b - H.264/MPEG-4 AVC codec - Copyleft 2003-2025 - http://www.videolan.org/x264.html - options: cabac=1 ref=3 deblock=1:0:0 analyse=0x3:0x113 me=hex subme=7 psy=1 psy_rd=1.00:0.00 mixed_ref=1 me_range=16 chroma_me=1 trellis=1 8x8dct=1 cqm=0 deadzone=21,11 fast_pskip=1 chroma_qp_offset=-2 threads=18 lookahead_threads=3 sliced_threads=0 nr=0 decimate=1 interlaced=0 bluray_compat=0 constrained_intra=0 bframes=3 b_pyramid=2 b_adapt=1 b_bias=0 direct=1 weightb=1 open_gop=0 weightp=2 keyint=250 keyint_min=25 scenecut=40 intra_refresh=0 rc_lookahead=40 rc=crf mbtree=1 crf=23.0 qcomp=0.60 qpmin=0 qpmax=69 qpstep=4 ip_ratio=1.40 aq=1:1.00
Output #0, mp4, to '../media/generated_videos/gen_1749887348.mp4':
  Metadata:
    encoder         : Lavf61.7.100
  Stream #0:0(eng): Video: h264 (avc1 / 0x31637661), yuv420p(tv, bt709, progressive), 464x848, q=2-31, 30 fps, 15360 tbn
      Metadata:
        creation_time   : 2024-10-18T05:10:06.000000Z
        handler_name    : VideoHandle
        vendor_id       : [0][0][0][0]
        encoder         : Lavc61.19.101 libx264
      Side data:
        cpb: bitrate max/min/avg: 0/0/0 buffer size: 0 vbv_delay: N/A
  Stream #0:1(eng): Audio: aac (LC) (mp4a / 0x6134706D), 44100 Hz, stereo, fltp, 128 kb/s
      Metadata:
        creation_time   : 2024-10-18T05:10:06.000000Z
        handler_name    : SoundHandle
        vendor_id       : [0][0][0][0]
        encoder         : Lavc61.19.101 aac
frame=   83 fps=0.0 q=29.0 size=     256KiB time=00:00:02.70 bitrate= 776.9kbits/s speed=5.26x    frame=  236 fps=229 q=29.0 size=    1024KiB time=00:00:08.16 bitrate=1027.2kbits/s speed=7.91x    frame=  361 fps=233 q=29.0 size=    1536KiB time=00:00:12.33 bitrate=1020.3kbits/s speed=7.96x    frame=  488 fps=236 q=29.0 size=    2304KiB time=00:00:16.63 bitrate=1134.8kbits/s speed=8.06x    frame=  623 fps=241 q=29.0 size=    2816KiB time=00:00:21.13 bitrate=1091.6kbits/s speed=8.18x    frame=  702 fps=225 q=29.0 size=    3328KiB time=00:00:23.83 bitrate=1143.9kbits/s speed=7.65x    frame=  793 fps=219 q=29.0 size=    3584KiB time=00:00:26.86 bitrate=1092.8kbits/s speed= 7.4x    frame=  889 fps=215 q=29.0 size=    4096KiB time=00:00:30.06 bitrate=1116.0kbits/s speed=7.27x    frame=  976 fps=210 q=29.0 size=    4608KiB time=00:00:33.03 bitrate=1142.8kbits/s speed= 7.1x    frame= 1047 fps=202 q=29.0 size=    5120KiB time=00:00:35.40 bitrate=1184.8kbits/s speed=6.84x    frame= 1126 fps=198 q=29.0 size=    5376KiB time=00:00:38.06 bitrate=1156.9kbits/s speed=6.69x    frame= 1214 fps=196 q=29.0 size=    5888KiB time=00:00:41.00 bitrate=1176.5kbits/s speed=6.61x    frame= 1305 fps=194 q=29.0 size=    6400KiB time=00:00:44.06 bitrate=1189.8kbits/s speed=6.55x    frame= 1390 fps=192 q=29.0 size=    6656KiB time=00:00:47.03 bitrate=1159.3kbits/s speed=6.49x    frame= 1471 fps=190 q=29.0 size=    7168KiB time=00:00:49.73 bitrate=1180.7kbits/s speed=6.41x    [mov,mp4,m4a,3gp,3g2,mj2 @ 000001552baa4c80] Auto-inserting h264_mp4toannexb bitstream filter
[vf#0:0 @ 000001552b910700] Reconfiguring filter graph because video parameters changed to yuv420p(tv, bt709), 640x360
Fontconfig error: Cannot load default config file: No such file: (null)
frame= 1563 fps=189 q=29.0 size=    7680KiB time=00:00:52.80 bitrate=1191.6kbits/s speed=6.37x    frame= 1666 fps=189 q=29.0 size=    8192KiB time=00:00:56.26 bitrate=1192.7kbits/s speed= 6.4x    frame= 1776 fps=191 q=29.0 size=    8448KiB time=00:00:59.93 bitrate=1154.7kbits/s speed=6.43x    frame= 1875 fps=191 q=29.0 size=    8960KiB time=00:01:03.23 bitrate=1160.8kbits/s speed=6.44x    frame= 1983 fps=192 q=29.0 size=    9216KiB time=00:01:06.83 bitrate=1129.6kbits/s speed=6.46x    frame= 2084 fps=192 q=29.0 size=    9728KiB time=00:01:10.20 bitrate=1135.2kbits/s speed=6.46x    frame= 2177 fps=191 q=29.0 size=    9984KiB time=00:01:13.30 bitrate=1115.8kbits/s speed=6.45x    frame= 2262 fps=190 q=29.0 size=   10496KiB time=00:01:16.13 bitrate=1129.4kbits/s speed= 6.4x    frame= 2353 fps=190 q=29.0 size=   11008KiB time=00:01:19.16 bitrate=1139.1kbits/s speed=6.38x    frame= 2466 fps=191 q=29.0 size=   11264KiB time=00:01:22.96 bitrate=1112.2kbits/s speed=6.42x    frame= 2572 fps=191 q=29.0 size=   11776KiB time=00:01:26.50 bitrate=1115.3kbits/s speed=6.44x    frame= 2685 fps=192 q=29.0 size=   12032KiB time=00:01:30.26 bitrate=1091.9kbits/s speed=6.47x    frame= 2807 fps=194 q=29.0 size=   12288KiB time=00:01:34.33 bitrate=1067.1kbits/s speed=6.52x    frame= 2923 fps=195 q=29.0 size=   12800KiB time=00:01:38.20 bitrate=1067.8kbits/s speed=6.55x    frame= 3032 fps=196 q=29.0 size=   13056KiB time=00:01:41.83 bitrate=1050.3kbits/s speed=6.57x    frame= 3136 fps=196 q=29.0 size=   13312KiB time=00:01:45.30 bitrate=1035.6kbits/s speed=6.58x    frame= 3247 fps=196 q=29.0 size=   13824KiB time=00:01:49.00 bitrate=1039.0kbits/s speed=6.59x    frame= 3359 fps=197 q=29.0 size=   14080KiB time=00:01:52.73 bitrate=1023.2kbits/s speed=6.61x    frame= 3480 fps=198 q=29.0 size=   14336KiB time=00:01:56.80 bitrate=1005.5kbits/s speed=6.65x    frame= 3607 fps=200 q=29.0 size=   14592KiB time=00:02:01.03 bitrate= 987.6kbits/s speed= 6.7x    frame= 3733 fps=201 q=29.0 size=   15104KiB time=00:02:05.23 bitrate= 988.0kbits/s speed=6.73x    frame= 3858 fps=202 q=29.0 size=   15360KiB time=00:02:09.40 bitrate= 972.4kbits/s speed=6.77x    frame= 3985 fps=203 q=29.0 size=   15616KiB time=00:02:13.63 bitrate= 957.3kbits/s speed=6.81x    frame= 4115 fps=204 q=29.0 size=   15872KiB time=00:02:17.96 bitrate= 942.4kbits/s speed=6.85x    frame= 4242 fps=205 q=29.0 size=   16128KiB time=00:02:22.20 bitrate= 929.1kbits/s speed=6.88x    frame= 4366 fps=206 q=29.0 size=   16384KiB time=00:02:26.33 bitrate= 917.2kbits/s speed=6.91x    frame= 4484 fps=207 q=29.0 size=   16640KiB time=00:02:30.30 bitrate= 907.0kbits/s speed=6.92x    frame= 4601 fps=207 q=29.0 size=   16896KiB time=00:02:34.20 bitrate= 897.6kbits/s speed=6.94x    frame= 4713 fps=207 q=29.0 size=   17152KiB time=00:02:37.93 bitrate= 889.7kbits/s speed=6.95x    frame= 4820 fps=207 q=29.0 size=   17664KiB time=00:02:41.50 bitrate= 896.0kbits/s speed=6.94x    frame= 4921 fps=207 q=29.0 size=   17920KiB time=00:02:44.86 bitrate= 890.4kbits/s speed=6.94x    frame= 5030 fps=207 q=29.0 size=   18176KiB time=00:02:48.50 bitrate= 883.7kbits/s speed=6.94x    frame= 5132 fps=207 q=29.0 size=   18432KiB time=00:02:51.90 bitrate= 878.4kbits/s speed=6.93x    frame= 5236 fps=207 q=29.0 size=   18688KiB time=00:02:55.36 bitrate= 873.0kbits/s speed=6.93x    frame= 5347 fps=207 q=29.0 size=   19200KiB time=00:02:59.06 bitrate= 878.4kbits/s speed=6.93x    frame= 5467 fps=208 q=29.0 size=   19456KiB time=00:03:03.10 bitrate= 870.5kbits/s speed=6.95x    frame= 5578 fps=208 q=29.0 size=   19712KiB time=00:03:06.80 bitrate= 864.5kbits/s speed=6.95x    frame= 5697 fps=208 q=29.0 size=   19968KiB time=00:03:10.76 bitrate= 857.5kbits/s speed=6.97x    frame= 5820 fps=209 q=29.0 size=   20224KiB time=00:03:14.86 bitrate= 850.2kbits/s speed=6.99x    frame= 5944 fps=209 q=29.0 size=   20480KiB time=00:03:19.00 bitrate= 843.1kbits/s speed=   7x    frame= 6059 fps=210 q=29.0 size=   20736KiB time=00:03:22.83 bitrate= 837.5kbits/s speed=7.01x    frame= 6196 fps=210 q=29.0 size=   20992KiB time=00:03:27.40 bitrate= 829.2kbits/s speed=7.05x    frame= 6343 fps=212 q=29.0 size=   21248KiB time=00:03:32.30 bitrate= 819.9kbits/s speed=7.09x    frame= 6486 fps=213 q=29.0 size=   21760KiB time=00:03:37.10 bitrate= 821.1kbits/s speed=7.12x    frame= 6618 fps=214 q=29.0 size=   22016KiB time=00:03:41.50 bitrate= 814.2kbits/s speed=7.15x    frame= 6765 fps=215 q=29.0 size=   22272KiB time=00:03:46.40 bitrate= 805.9kbits/s speed=7.19x    frame= 6908 fps=216 q=29.0 size=   22528KiB time=00:03:51.16 bitrate= 798.3kbits/s speed=7.22x    frame= 7041 fps=216 q=29.0 size=   22784KiB time=00:03:55.60 bitrate= 792.2kbits/s speed=7.24x    frame= 7179 fps=217 q=29.0 size=   23040KiB time=00:04:00.20 bitrate= 785.8kbits/s speed=7.27x    frame= 7320 fps=218 q=29.0 size=   23296KiB time=00:04:04.90 bitrate= 779.3kbits/s speed= 7.3x    frame= 7455 fps=219 q=29.0 size=   23552KiB time=00:04:09.43 bitrate= 773.5kbits/s speed=7.32x    frame= 7598 fps=220 q=29.0 size=   23808KiB time=00:04:14.20 bitrate= 767.3kbits/s speed=7.35x    frame= 7740 fps=220 q=29.0 size=   24064KiB time=00:04:18.93 bitrate= 761.3kbits/s speed=7.37x    frame= 7886 fps=221 q=29.0 size=   24320KiB time=00:04:23.80 bitrate= 755.2kbits/s speed= 7.4x    frame= 8017 fps=222 q=29.0 size=   24576KiB time=00:04:28.16 bitrate= 750.8kbits/s speed=7.42x    frame= 8126 fps=222 q=29.0 size=   25088KiB time=00:04:31.80 bitrate= 756.1kbits/s speed=7.41x    frame= 8235 fps=221 q=29.0 size=   25344KiB time=00:04:35.43 bitrate= 753.8kbits/s speed=7.41x    frame= 8344 fps=221 q=29.0 size=   25600KiB time=00:04:39.06 bitrate= 751.5kbits/s speed= 7.4x    frame= 8473 fps=222 q=29.0 size=   25856KiB time=00:04:43.40 bitrate= 747.4kbits/s speed=7.42x    frame= 8595 fps=222 q=29.0 size=   26368KiB time=00:04:47.46 bitrate= 751.4kbits/s speed=7.42x    frame= 8718 fps=222 q=29.0 size=   26624KiB time=00:04:51.56 bitrate= 748.0kbits/s speed=7.43x    frame= 8834 fps=222 q=29.0 size=   26880KiB time=00:04:55.43 bitrate= 745.4kbits/s speed=7.43x    frame= 8949 fps=222 q=29.0 size=   27136KiB time=00:04:59.26 bitrate= 742.8kbits/s speed=7.43x    frame= 9059 fps=222 q=29.0 size=   27392KiB time=00:05:02.93 bitrate= 740.7kbits/s speed=7.43x    frame= 9189 fps=222 q=29.0 size=   27648KiB time=00:05:07.26 bitrate= 737.1kbits/s speed=7.44x    frame= 9316 fps=223 q=29.0 size=   27904KiB time=00:05:11.50 bitrate= 733.8kbits/s speed=7.45x    frame= 9436 fps=223 q=29.0 size=   28160KiB time=00:05:15.53 bitrate= 731.1kbits/s speed=7.45x    frame= 9533 fps=222 q=29.0 size=   28672KiB time=00:05:18.76 bitrate= 736.8kbits/s speed=7.44x    frame= 9640 fps=222 q=29.0 size=   28928KiB time=00:05:22.33 bitrate= 735.2kbits/s speed=7.43x    frame= 9737 fps=222 q=29.0 size=   29184KiB time=00:05:25.56 bitrate= 734.3kbits/s speed=7.42x    frame= 9833 fps=221 q=29.0 size=   29696KiB time=00:05:28.76 bitrate= 739.9kbits/s speed= 7.4x    frame= 9946 fps=221 q=29.0 size=   29952KiB time=00:05:32.56 bitrate= 737.8kbits/s speed= 7.4x    frame=10065 fps=221 q=29.0 size=   30208KiB time=00:05:36.50 bitrate= 735.4kbits/s speed=7.41x    frame=10164 fps=221 q=29.0 size=   30464KiB time=00:05:39.80 bitrate= 734.4kbits/s speed=7.39x    frame=10271 fps=221 q=29.0 size=   30720KiB time=00:05:43.36 bitrate= 732.9kbits/s speed=7.39x    frame=10380 fps=221 q=29.0 size=   31232KiB time=00:05:47.00 bitrate= 737.3kbits/s speed=7.39x    frame=10477 fps=221 q=29.0 size=   31488KiB time=00:05:50.26 bitrate= 736.4kbits/s speed=7.38x    frame=10592 fps=221 q=29.0 size=   31744KiB time=00:05:54.10 bitrate= 734.4kbits/s speed=7.37x    frame=10700 fps=221 q=29.0 size=   32000KiB time=00:05:57.70 bitrate= 732.9kbits/s speed=7.37x    frame=10810 fps=220 q=29.0 size=   32256KiB time=00:06:01.36 bitrate= 731.2kbits/s speed=7.37x    frame=10912 fps=220 q=29.0 size=   32768KiB time=00:06:04.76 bitrate= 735.9kbits/s speed=7.36x    frame=11016 fps=220 q=29.0 size=   33024KiB time=00:06:08.23 bitrate= 734.7kbits/s speed=7.35x    frame=11118 fps=220 q=29.0 size=   33280KiB time=00:06:11.63 bitrate= 733.6kbits/s speed=7.35x    frame=11226 fps=220 q=29.0 size=   33536KiB time=00:06:15.23 bitrate= 732.2kbits/s speed=7.34x    frame=11334 fps=220 q=29.0 size=   33792KiB time=00:06:18.83 bitrate= 730.7kbits/s speed=7.34x    frame=11445 fps=220 q=29.0 size=   34048KiB time=00:06:22.56 bitrate= 729.1kbits/s speed=7.34x    frame=11565 fps=220 q=29.0 size=   34560KiB time=00:06:26.56 bitrate= 732.4kbits/s speed=7.34x    frame=11671 fps=220 q=29.0 size=   34816KiB time=00:06:30.10 bitrate= 731.1kbits/s speed=7.34x    frame=11788 fps=220 q=29.0 size=   35072KiB time=00:06:34.00 bitrate= 729.2kbits/s speed=7.34x    frame=11881 fps=219 q=29.0 size=   35328KiB time=00:06:37.10 bitrate= 728.8kbits/s speed=7.33x    frame=12008 fps=219 q=29.0 size=   35584KiB time=00:06:41.33 bitrate= 726.3kbits/s speed=7.33x    frame=12131 fps=220 q=29.0 size=   35840KiB time=00:06:45.43 bitrate= 724.2kbits/s speed=7.34x    frame=12251 fps=220 q=26.0 size=   36096KiB time=00:06:49.43 bitrate= 722.2kbits/s speed=7.34x    frame=12376 fps=220 q=29.0 size=   36352KiB time=00:06:53.60 bitrate= 720.0kbits/s speed=7.35x    frame=12498 fps=220 q=29.0 size=   36608KiB time=00:06:57.70 bitrate= 718.0kbits/s speed=7.36x    frame=12605 fps=220 q=29.0 size=   36864KiB time=00:07:01.26 bitrate= 716.9kbits/s speed=7.35x    frame=12693 fps=220 q=29.0 size=   37120KiB time=00:07:04.20 bitrate= 716.8kbits/s speed=7.34x    frame=12780 fps=219 q=29.0 size=   37632KiB time=00:07:07.10 bitrate= 721.8kbits/s speed=7.32x    frame=12872 fps=219 q=29.0 size=   37888KiB time=00:07:10.16 bitrate= 721.5kbits/s speed=7.31x    frame=12975 fps=219 q=29.0 size=   38144KiB time=00:07:13.60 bitrate= 720.7kbits/s speed= 7.3x    frame=13097 fps=219 q=29.0 size=   38400KiB time=00:07:17.66 bitrate= 718.8kbits/s speed=7.31x    frame=13204 fps=219 q=29.0 size=   38656KiB time=00:07:21.23 bitrate= 717.7kbits/s speed=7.31x    frame=13314 fps=219 q=29.0 size=   39168KiB time=00:07:24.90 bitrate= 721.2kbits/s speed=7.31x    frame=13428 fps=219 q=29.0 size=   39424KiB time=00:07:28.73 bitrate= 719.7kbits/s speed=7.31x    frame=13530 fps=218 q=29.0 size=   39680KiB time=00:07:32.13 bitrate= 718.9kbits/s speed= 7.3x    frame=13627 fps=218 q=29.0 size=   40192KiB time=00:07:35.36 bitrate= 723.1kbits/s speed=7.29x    frame=13740 fps=218 q=29.0 size=   40448KiB time=00:07:39.13 bitrate= 721.7kbits/s speed=7.29x    frame=13859 fps=218 q=29.0 size=   40704KiB time=00:07:43.10 bitrate= 720.0kbits/s speed=7.29x    frame=13977 fps=218 q=29.0 size=   40960KiB time=00:07:47.03 bitrate= 718.5kbits/s speed= 7.3x    frame=14097 fps=218 q=29.0 size=   41472KiB time=00:07:51.03 bitrate= 721.3kbits/s speed= 7.3x    frame=14213 fps=218 q=29.0 size=   41728KiB time=00:07:54.90 bitrate= 719.8kbits/s speed= 7.3x    frame=14322 fps=218 q=29.0 size=   41984KiB time=00:07:58.53 bitrate= 718.7kbits/s speed= 7.3x    frame=14434 fps=218 q=29.0 size=   42240KiB time=00:08:02.30 bitrate= 717.5kbits/s speed= 7.3x    frame=14542 fps=218 q=29.0 size=   42752KiB time=00:08:05.90 bitrate= 720.8kbits/s speed= 7.3x    frame=14644 fps=218 q=29.0 size=   43008KiB time=00:08:09.30 bitrate= 720.1kbits/s speed=7.29x    frame=14744 fps=218 q=29.0 size=   43264KiB time=00:08:12.63 bitrate= 719.4kbits/s speed=7.29x    frame=14847 fps=218 q=29.0 size=   43776KiB time=00:08:16.06 bitrate= 722.9kbits/s speed=7.28x    frame=14950 fps=218 q=29.0 size=   44032KiB time=00:08:19.50 bitrate= 722.1kbits/s speed=7.27x    frame=15050 fps=218 q=29.0 size=   44544KiB time=00:08:22.83 bitrate= 725.7kbits/s speed=7.27x    frame=15157 fps=217 q=29.0 size=   44800KiB time=00:08:26.40 bitrate= 724.7kbits/s speed=7.27x    frame=15262 fps=217 q=29.0 size=   45056KiB time=00:08:29.90 bitrate= 723.9kbits/s speed=7.26x    frame=15369 fps=217 q=29.0 size=   45312KiB time=00:08:33.46 bitrate= 722.9kbits/s speed=7.26x    frame=15466 fps=217 q=29.0 size=   45824KiB time=00:08:36.73 bitrate= 726.5kbits/s speed=7.25x    frame=15564 fps=217 q=29.0 size=   46080KiB time=00:08:40.00 bitrate= 725.9kbits/s speed=7.25x    frame=15655 fps=217 q=29.0 size=   46336KiB time=00:08:43.03 bitrate= 725.7kbits/s speed=7.24x    frame=15752 fps=216 q=29.0 size=   46592KiB time=00:08:46.26 bitrate= 725.3kbits/s speed=7.23x    frame=15844 fps=216 q=29.0 size=   47104KiB time=00:08:49.33 bitrate= 729.0kbits/s speed=7.22x    frame=15934 fps=216 q=29.0 size=   47360KiB time=00:08:52.33 bitrate= 728.8kbits/s speed=7.21x    frame=16035 fps=216 q=29.0 size=   47616KiB time=00:08:55.70 bitrate= 728.2kbits/s speed=7.21x    frame=16131 fps=216 q=29.0 size=   47872KiB time=00:08:58.90 bitrate= 727.7kbits/s speed= 7.2x    frame=16231 fps=215 q=29.0 size=   48384KiB time=00:09:02.23 bitrate= 731.0kbits/s speed=7.19x    frame=16327 fps=215 q=29.0 size=   48640KiB time=00:09:05.43 bitrate= 730.5kbits/s speed=7.19x    frame=16422 fps=215 q=29.0 size=   48896KiB time=00:09:08.63 bitrate= 730.1kbits/s speed=7.18x    frame=16526 fps=215 q=29.0 size=   49152KiB time=00:09:12.10 bitrate= 729.3kbits/s speed=7.18x    frame=16630 fps=215 q=29.0 size=   49408KiB time=00:09:15.56 bitrate= 728.5kbits/s speed=7.18x    frame=16714 fps=214 q=29.0 size=   49920KiB time=00:09:18.36 bitrate= 732.4kbits/s speed=7.17x    frame=16819 fps=214 q=29.0 size=   50176KiB time=00:09:21.86 bitrate= 731.6kbits/s speed=7.16x    frame=16938 fps=215 q=29.0 size=   50688KiB time=00:09:25.83 bitrate= 733.8kbits/s speed=7.17x    frame=17044 fps=214 q=29.0 size=   50944KiB time=00:09:29.36 bitrate= 733.0kbits/s speed=7.16x    frame=17159 fps=215 q=29.0 size=   51200KiB time=00:09:33.20 bitrate= 731.7kbits/s speed=7.17x    frame=17271 fps=214 q=29.0 size=   51712KiB time=00:09:36.93 bitrate= 734.3kbits/s speed=7.17x    frame=17381 fps=214 q=29.0 size=   51968KiB time=00:09:40.60 bitrate= 733.2kbits/s speed=7.17x    frame=17464 fps=214 q=29.0 size=   52224KiB time=00:09:43.40 bitrate= 733.3kbits/s speed=7.15x    frame=17547 fps=214 q=29.0 size=   52736KiB time=00:09:46.16 bitrate= 737.0kbits/s speed=7.14x    frame=17627 fps=213 q=29.0 size=   52992KiB time=00:09:48.83 bitrate= 737.2kbits/s speed=7.13x    frame=17704 fps=213 q=29.0 size=   53504KiB time=00:09:51.40 bitrate= 741.1kbits/s speed=7.12x    frame=17783 fps=213 q=29.0 size=   53760KiB time=00:09:54.03 bitrate= 741.4kbits/s speed= 7.1x    frame=17862 fps=212 q=29.0 size=   54016KiB time=00:09:56.66 bitrate= 741.6kbits/s speed=7.09x    frame=17937 fps=212 q=29.0 size=   54528KiB time=00:09:59.16 bitrate= 745.5kbits/s speed=7.08x    frame=18018 fps=212 q=29.0 size=   54784KiB time=00:10:01.86 bitrate= 745.7kbits/s speed=7.07x    frame=18095 fps=211 q=26.0 size=   55296KiB time=00:10:04.43 bitrate= 749.4kbits/s speed=7.06x    frame=18177 fps=211 q=29.0 size=   55552KiB time=00:10:07.16 bitrate= 749.5kbits/s speed=7.04x    frame=18255 fps=211 q=29.0 size=   56064KiB time=00:10:09.76 bitrate= 753.2kbits/s speed=7.03x    frame=18355 fps=210 q=29.0 size=   56320KiB time=00:10:13.10 bitrate= 752.5kbits/s speed=7.03x    frame=18459 fps=210 q=29.0 size=   56576KiB time=00:10:16.60 bitrate= 751.7kbits/s speed=7.03x    frame=18559 fps=210 q=29.0 size=   56832KiB time=00:10:19.93 bitrate= 751.0kbits/s speed=7.02x    frame=18658 fps=210 q=29.0 size=   57088KiB time=00:10:23.23 bitrate= 750.4kbits/s speed=7.02x    frame=18757 fps=210 q=29.0 size=   57600KiB time=00:10:26.53 bitrate= 753.1kbits/s speed=7.02x    frame=18857 fps=210 q=29.0 size=   57856KiB time=00:10:29.86 bitrate= 752.5kbits/s speed=7.01x    frame=18953 fps=210 q=29.0 size=   58112KiB time=00:10:33.06 bitrate= 752.0kbits/s speed=7.01x    frame=19055 fps=210 q=29.0 size=   58368KiB time=00:10:36.46 bitrate= 751.3kbits/s speed=7.01x    frame=19167 fps=210 q=29.0 size=   58880KiB time=00:10:40.20 bitrate= 753.4kbits/s speed=7.01x    frame=19269 fps=210 q=29.0 size=   59136KiB time=00:10:43.60 bitrate= 752.7kbits/s speed=7.01x    frame=19375 fps=210 q=29.0 size=   59392KiB time=00:10:47.13 bitrate= 751.8kbits/s speed=7.01x    frame=19463 fps=210 q=29.0 size=   59648KiB time=00:10:50.10 bitrate= 751.6kbits/s speed=   7x    frame=19550 fps=209 q=29.0 size=   60160KiB time=00:10:53.00 bitrate= 754.7kbits/s speed=6.99x    frame=19643 fps=209 q=29.0 size=   60416KiB time=00:10:56.10 bitrate= 754.3kbits/s speed=6.99x    frame=19743 fps=209 q=29.0 size=   60928KiB time=00:10:59.43 bitrate= 756.9kbits/s speed=6.98x    frame=19847 fps=209 q=29.0 size=   61184KiB time=00:11:02.90 bitrate= 756.1kbits/s speed=6.98x    frame=19965 fps=209 q=29.0 size=   61440KiB time=00:11:06.83 bitrate= 754.8kbits/s speed=6.98x    frame=20075 fps=209 q=29.0 size=   61952KiB time=00:11:10.50 bitrate= 756.9kbits/s speed=6.99x    frame=20180 fps=209 q=29.0 size=   62208KiB time=00:11:14.00 bitrate= 756.1kbits/s speed=6.98x    frame=20284 fps=209 q=29.0 size=   62464KiB time=00:11:17.46 bitrate= 755.3kbits/s speed=6.98x    frame=20381 fps=209 q=29.0 size=   62720KiB time=00:11:20.70 bitrate= 754.8kbits/s speed=6.98x    frame=20476 fps=209 q=29.0 size=   63232KiB time=00:11:23.90 bitrate= 757.4kbits/s speed=6.98x    frame=20575 fps=209 q=29.0 size=   63488KiB time=00:11:27.20 bitrate= 756.8kbits/s speed=6.97x    frame=20668 fps=209 q=29.0 size=   63744KiB time=00:11:30.30 bitrate= 756.5kbits/s speed=6.97x    frame=20758 fps=208 q=29.0 size=   64256KiB time=00:11:33.30 bitrate= 759.2kbits/s speed=6.96x    frame=20842 fps=208 q=29.0 size=   64512KiB time=00:11:36.10 bitrate= 759.2kbits/s speed=6.95x    frame=20930 fps=208 q=29.0 size=   65024KiB time=00:11:39.03 bitrate= 762.0kbits/s speed=6.95x    frame=21016 fps=208 q=29.0 size=   65536KiB time=00:11:41.90 bitrate= 764.9kbits/s speed=6.94x    frame=21101 fps=208 q=29.0 size=   65792KiB time=00:11:44.73 bitrate= 764.8kbits/s speed=6.93x    frame=21189 fps=207 q=29.0 size=   66304KiB time=00:11:47.66 bitrate= 767.5kbits/s speed=6.93x    frame=21283 fps=207 q=29.0 size=   66560KiB time=00:11:50.80 bitrate= 767.1kbits/s speed=6.92x    frame=21377 fps=207 q=29.0 size=   66816KiB time=00:11:53.93 bitrate= 766.7kbits/s speed=6.92x    frame=21465 fps=207 q=29.0 size=   67328KiB time=00:11:56.90 bitrate= 769.4kbits/s speed=6.91x    frame=21554 fps=207 q=29.0 size=   67584KiB time=00:11:59.86 bitrate= 769.1kbits/s speed=6.91x    frame=21647 fps=207 q=29.0 size=   68096KiB time=00:12:02.96 bitrate= 771.6kbits/s speed= 6.9x    frame=21741 fps=207 q=29.0 size=   68352KiB time=00:12:06.10 bitrate= 771.2kbits/s speed= 6.9x    frame=21831 fps=206 q=29.0 size=   68608KiB time=00:12:09.10 bitrate= 770.9kbits/s speed=6.89x    frame=21925 fps=206 q=29.0 size=   69120KiB time=00:12:12.23 bitrate= 773.3kbits/s speed=6.89x    frame=22012 fps=206 q=29.0 size=   69376KiB time=00:12:15.13 bitrate= 773.1kbits/s speed=6.88x    frame=22099 fps=206 q=29.0 size=   69888KiB time=00:12:18.03 bitrate= 775.7kbits/s speed=6.88x    frame=22180 fps=206 q=29.0 size=   70144KiB time=00:12:20.73 bitrate= 775.7kbits/s speed=6.87x    frame=22268 fps=206 q=29.0 size=   70656KiB time=00:12:23.66 bitrate= 778.3kbits/s speed=6.86x    frame=22351 fps=205 q=29.0 size=   70912KiB time=00:12:26.43 bitrate= 778.2kbits/s speed=6.86x    frame=22430 fps=205 q=29.0 size=   71424KiB time=00:12:29.10 bitrate= 781.1kbits/s speed=6.85x    frame=22516 fps=205 q=29.0 size=   71936KiB time=00:12:31.96 bitrate= 783.7kbits/s speed=6.84x    frame=22614 fps=205 q=29.0 size=   72192KiB time=00:12:35.23 bitrate= 783.1kbits/s speed=6.84x    frame=22720 fps=205 q=29.0 size=   72704KiB time=00:12:38.76 bitrate= 784.9kbits/s speed=6.84x    frame=22813 fps=205 q=29.0 size=   72960KiB time=00:12:41.86 bitrate= 784.5kbits/s speed=6.84x    frame=22910 fps=205 q=29.0 size=   73216KiB time=00:12:45.10 bitrate= 783.9kbits/s speed=6.83x    frame=23004 fps=205 q=29.0 size=   73728KiB time=00:12:48.23 bitrate= 786.2kbits/s speed=6.83x    frame=23099 fps=204 q=29.0 size=   73984KiB time=00:12:51.40 bitrate= 785.7kbits/s speed=6.83x    frame=23189 fps=204 q=29.0 size=   74240KiB time=00:12:54.40 bitrate= 785.3kbits/s speed=6.82x    frame=23271 fps=204 q=29.0 size=   74752KiB time=00:12:57.13 bitrate= 788.0kbits/s speed=6.82x    frame=23370 fps=204 q=29.0 size=   75008KiB time=00:13:00.43 bitrate= 787.3kbits/s speed=6.81x    frame=23474 fps=204 q=29.0 size=   75520KiB time=00:13:03.93 bitrate= 789.2kbits/s speed=6.81x    frame=23569 fps=204 q=29.0 size=   75776KiB time=00:13:07.10 bitrate= 788.7kbits/s speed=6.81x    frame=23672 fps=204 q=29.0 size=   76032KiB time=00:13:10.53 bitrate= 787.9kbits/s speed=6.81x    frame=23772 fps=204 q=29.0 size=   76288KiB time=00:13:13.86 bitrate= 787.2kbits/s speed=6.81x    frame=23868 fps=204 q=29.0 size=   76800KiB time=00:13:17.06 bitrate= 789.3kbits/s speed=6.81x    frame=23961 fps=204 q=29.0 size=   77312KiB time=00:13:20.16 bitrate= 791.5kbits/s speed= 6.8x    frame=24053 fps=204 q=29.0 size=   77568KiB time=00:13:23.23 bitrate= 791.1kbits/s speed= 6.8x    frame=24161 fps=204 q=29.0 size=   77824KiB time=00:13:26.83 bitrate= 790.2kbits/s speed= 6.8x    frame=24278 fps=204 q=29.0 size=   78336KiB time=00:13:30.73 bitrate= 791.5kbits/s speed= 6.8x    frame=24387 fps=204 q=29.0 size=   78592KiB time=00:13:34.36 bitrate= 790.6kbits/s speed= 6.8x    frame=24495 fps=204 q=29.0 size=   78848KiB time=00:13:38.00 bitrate= 789.6kbits/s speed= 6.8x    frame=24604 fps=204 q=29.0 size=   79360KiB time=00:13:41.63 bitrate= 791.3kbits/s speed=6.81x    frame=24709 fps=204 q=29.0 size=   79616KiB time=00:13:45.13 bitrate= 790.4kbits/s speed=6.81x    frame=24817 fps=204 q=29.0 size=   79872KiB time=00:13:48.73 bitrate= 789.5kbits/s speed=6.81x    frame=24930 fps=204 q=29.0 size=   80384KiB time=00:13:52.50 bitrate= 791.0kbits/s speed=6.81x    frame=25020 fps=204 q=29.0 size=   80640KiB time=00:13:55.50 bitrate= 790.7kbits/s speed= 6.8x    frame=25105 fps=204 q=29.0 size=   80896KiB time=00:13:58.33 bitrate= 790.5kbits/s speed= 6.8x    frame=25192 fps=203 q=26.0 size=   81408KiB time=00:14:01.23 bitrate= 792.8kbits/s speed=6.79x    frame=25277 fps=203 q=29.0 size=   81664KiB time=00:14:04.06 bitrate= 792.6kbits/s speed=6.79x    frame=25365 fps=203 q=29.0 size=   81920KiB time=00:14:07.00 bitrate= 792.3kbits/s speed=6.78x    frame=25458 fps=203 q=29.0 size=   82432KiB time=00:14:10.13 bitrate= 794.3kbits/s speed=6.78x    frame=25551 fps=203 q=29.0 size=   82688KiB time=00:14:13.23 bitrate= 793.9kbits/s speed=6.78x    frame=25645 fps=203 q=29.0 size=   83200KiB time=00:14:16.36 bitrate= 795.9kbits/s speed=6.77x    frame=25734 fps=203 q=29.0 size=   83456KiB time=00:14:19.33 bitrate= 795.6kbits/s speed=6.77x    frame=25814 fps=203 q=29.0 size=   83712KiB time=00:14:22.00 bitrate= 795.6kbits/s speed=6.76x    frame=25899 fps=202 q=29.0 size=   84224KiB time=00:14:24.83 bitrate= 797.8kbits/s speed=6.76x    frame=25984 fps=202 q=29.0 size=   84480KiB time=00:14:27.66 bitrate= 797.6kbits/s speed=6.75x    frame=26082 fps=202 q=29.0 size=   84992KiB time=00:14:30.93 bitrate= 799.4kbits/s speed=6.75x    frame=26191 fps=202 q=29.0 size=   85248KiB time=00:14:34.56 bitrate= 798.5kbits/s speed=6.75x    frame=26300 fps=202 q=29.0 size=   85760KiB time=00:14:38.20 bitrate= 800.0kbits/s speed=6.75x    frame=26409 fps=202 q=29.0 size=   86016KiB time=00:14:41.86 bitrate= 799.0kbits/s speed=6.76x    frame=26499 fps=202 q=29.0 size=   86272KiB time=00:14:44.86 bitrate= 798.7kbits/s speed=6.75x    frame=26602 fps=202 q=29.0 size=   86784KiB time=00:14:48.30 bitrate= 800.3kbits/s speed=6.75x    [mov,mp4,m4a,3gp,3g2,mj2 @ 000001552db62bc0] Auto-inserting h264_mp4toannexb bitstream filter
frame=26708 fps=202 q=29.0 size=   87296KiB time=00:14:51.83 bitrate= 801.9kbits/s speed=6.75x    frame=26860 fps=203 q=29.0 size=   87552KiB time=00:14:57.60 bitrate= 799.0kbits/s speed=6.77x    frame=26976 fps=203 q=29.0 size=   87808KiB time=00:15:02.23 bitrate= 797.3kbits/s speed=6.78x    frame=27124 fps=203 q=27.0 size=   88064KiB time=00:15:08.16 bitrate= 794.4kbits/s speed= 6.8x    frame=27215 fps=203 q=29.0 size=   88320KiB time=00:15:11.80 bitrate= 793.5kbits/s speed= 6.8x    frame=27313 fps=203 q=29.0 size=   88832KiB time=00:15:15.70 bitrate= 794.7kbits/s speed= 6.8x    frame=27411 fps=203 q=29.0 size=   89088KiB time=00:15:19.63 bitrate= 793.6kbits/s speed= 6.8x    frame=27522 fps=203 q=29.0 size=   89344KiB time=00:15:24.06 bitrate= 792.0kbits/s speed=6.81x    frame=27647 fps=203 q=28.0 size=   89856KiB time=00:15:29.06 bitrate= 792.3kbits/s speed=6.82x    frame=27764 fps=203 q=29.0 size=   90368KiB time=00:15:33.76 bitrate= 792.8kbits/s speed=6.83x    frame=27880 fps=203 q=29.0 size=   90624KiB time=00:15:38.40 bitrate= 791.1kbits/s speed=6.84x    frame=27997 fps=203 q=26.0 size=   91136KiB time=00:15:43.06 bitrate= 791.7kbits/s speed=6.85x    frame=28109 fps=203 q=29.0 size=   91392KiB time=00:15:47.56 bitrate= 790.1kbits/s speed=6.85x    frame=28208 fps=203 q=29.0 size=   91904KiB time=00:15:51.50 bitrate= 791.3kbits/s speed=6.86x    frame=28333 fps=203 q=28.0 size=   92160KiB time=00:15:56.50 bitrate= 789.3kbits/s speed=6.87x    frame=28466 fps=204 q=27.0 size=   92416KiB time=00:16:01.83 bitrate= 787.1kbits/s speed=6.88x    frame=28582 fps=204 q=29.0 size=   92672KiB time=00:16:06.46 bitrate= 785.5kbits/s speed=6.89x    frame=28658 fps=203 q=28.0 size=   92928KiB time=00:16:09.50 bitrate= 785.2kbits/s speed=6.88x    frame=28729 fps=203 q=29.0 size=   92928KiB time=00:16:12.36 bitrate= 782.9kbits/s speed=6.88x    frame=28830 fps=203 q=29.0 size=   93184KiB time=00:16:16.40 bitrate= 781.8kbits/s speed=6.88x    frame=28883 fps=203 q=28.0 size=   93184KiB time=00:16:18.50 bitrate= 780.1kbits/s speed=6.87x    frame=28976 fps=203 q=29.0 size=   93440KiB time=00:16:22.23 bitrate= 779.3kbits/s speed=6.87x    frame=29058 fps=203 q=29.0 size=   93440KiB time=00:16:25.50 bitrate= 776.7kbits/s speed=6.87x    frame=29133 fps=202 q=28.0 size=   93696KiB time=00:16:28.50 bitrate= 776.5kbits/s speed=6.87x    frame=29226 fps=202 q=29.0 size=   93696KiB time=00:16:32.23 bitrate= 773.6kbits/s speed=6.87x    frame=29298 fps=202 q=28.0 size=   93952KiB time=00:16:35.10 bitrate= 773.4kbits/s speed=6.86x    frame=29383 fps=202 q=28.0 size=   94208KiB time=00:16:38.50 bitrate= 772.9kbits/s speed=6.86x    frame=29454 fps=202 q=29.0 size=   94208KiB time=00:16:41.36 bitrate= 770.7kbits/s speed=6.86x    frame=29521 fps=201 q=27.0 size=   94464KiB time=00:16:44.03 bitrate= 770.7kbits/s speed=6.85x    frame=29593 fps=201 q=29.0 size=   94464KiB time=00:16:46.90 bitrate= 768.5kbits/s speed=6.85x    frame=29679 fps=201 q=29.0 size=   94464KiB time=00:16:50.36 bitrate= 765.9kbits/s speed=6.85x    frame=29778 fps=201 q=29.0 size=   94720KiB time=00:16:54.30 bitrate= 765.0kbits/s speed=6.85x    frame=29876 fps=201 q=29.0 size=   94720KiB time=00:16:58.23 bitrate= 762.1kbits/s speed=6.85x    frame=29958 fps=201 q=29.0 size=   94976KiB time=00:17:01.50 bitrate= 761.7kbits/s speed=6.85x    frame=30053 fps=201 q=29.0 size=   95232KiB time=00:17:05.30 bitrate= 760.9kbits/s speed=6.85x    frame=30132 fps=201 q=28.0 size=   95488KiB time=00:17:08.46 bitrate= 760.6kbits/s speed=6.85x    frame=30222 fps=201 q=29.0 size=   95744KiB time=00:17:12.06 bitrate= 760.0kbits/s speed=6.85x    frame=30330 fps=201 q=29.0 size=   96000KiB time=00:17:16.40 bitrate= 758.8kbits/s speed=6.86x    frame=30415 fps=200 q=29.0 size=   96000KiB time=00:17:19.80 bitrate= 756.3kbits/s speed=6.85x    frame=30498 fps=200 q=28.0 size=   96256KiB time=00:17:23.10 bitrate= 755.9kbits/s speed=6.85x    frame=30585 fps=200 q=29.0 size=   96512KiB time=00:17:26.60 bitrate= 755.4kbits/s speed=6.85x    frame=30666 fps=200 q=27.0 size=   96768KiB time=00:17:29.83 bitrate= 755.1kbits/s speed=6.85x    frame=30767 fps=200 q=29.0 size=   97024KiB time=00:17:33.86 bitrate= 754.2kbits/s speed=6.85x    frame=30871 fps=200 q=28.0 size=   97024KiB time=00:17:38.03 bitrate= 751.2kbits/s speed=6.86x    frame=30960 fps=200 q=29.0 size=   97280KiB time=00:17:41.60 bitrate= 750.7kbits/s speed=6.86x    frame=31037 fps=200 q=28.0 size=   97536KiB time=00:17:44.66 bitrate= 750.5kbits/s speed=6.85x    frame=31116 fps=200 q=27.0 size=   97536KiB time=00:17:47.83 bitrate= 748.3kbits/s speed=6.85x    frame=31242 fps=200 q=29.0 size=   97792KiB time=00:17:52.86 bitrate= 746.7kbits/s speed=6.86x    frame=31330 fps=200 q=29.0 size=   98048KiB time=00:17:56.40 bitrate= 746.2kbits/s speed=6.86x    frame=31416 fps=200 q=29.0 size=   98304KiB time=00:17:59.83 bitrate= 745.8kbits/s speed=6.86x    frame=31518 fps=200 q=28.0 size=   98560KiB time=00:18:03.90 bitrate= 744.9kbits/s speed=6.86x    frame=31635 fps=200 q=29.0 size=   98816KiB time=00:18:08.60 bitrate= 743.6kbits/s speed=6.87x    frame=31750 fps=200 q=29.0 size=   99328KiB time=00:18:13.20 bitrate= 744.3kbits/s speed=6.88x    frame=31848 fps=200 q=28.0 size=   99328KiB time=00:18:17.10 bitrate= 741.7kbits/s speed=6.88x    frame=31950 fps=200 q=29.0 size=   99840KiB time=00:18:21.20 bitrate= 742.7kbits/s speed=6.88x    frame=32043 fps=200 q=29.0 size=  100096KiB time=00:18:24.90 bitrate= 742.1kbits/s speed=6.89x    frame=32118 fps=199 q=28.0 size=  100352KiB time=00:18:27.90 bitrate= 742.0kbits/s speed=6.88x    frame=32190 fps=199 q=29.0 size=  100608KiB time=00:18:30.80 bitrate= 742.0kbits/s speed=6.88x    frame=32298 fps=199 q=29.0 size=  100864KiB time=00:18:35.10 bitrate= 741.0kbits/s speed=6.88x    frame=32373 fps=199 q=29.0 size=  101120KiB time=00:18:38.10 bitrate= 740.9kbits/s speed=6.88x    frame=32473 fps=199 q=29.0 size=  101376KiB time=00:18:42.10 bitrate= 740.1kbits/s speed=6.88x    frame=32574 fps=199 q=29.0 size=  101632KiB time=00:18:46.16 bitrate= 739.3kbits/s speed=6.88x    frame=32647 fps=199 q=29.0 size=  101632KiB time=00:18:49.06 bitrate= 737.4kbits/s speed=6.88x    frame=32745 fps=199 q=29.0 size=  101888KiB time=00:18:53.00 bitrate= 736.7kbits/s speed=6.88x    frame=32838 fps=199 q=29.0 size=  102144KiB time=00:18:56.70 bitrate= 736.1kbits/s speed=6.88x    frame=32936 fps=199 q=27.0 size=  102400KiB time=00:19:00.63 bitrate= 735.4kbits/s speed=6.89x    frame=33026 fps=199 q=29.0 size=  102656KiB time=00:19:04.23 bitrate= 735.0kbits/s speed=6.89x    frame=33114 fps=199 q=29.0 size=  102912KiB time=00:19:07.76 bitrate= 734.5kbits/s speed=6.89x    frame=33214 fps=199 q=27.0 size=  103168KiB time=00:19:11.76 bitrate= 733.8kbits/s speed=6.89x    frame=33329 fps=199 q=27.0 size=  103424KiB time=00:19:16.36 bitrate= 732.7kbits/s speed= 6.9x    frame=33428 fps=199 q=28.0 size=  103680KiB time=00:19:20.30 bitrate= 732.0kbits/s speed= 6.9x    frame=33507 fps=199 q=27.0 size=  103936KiB time=00:19:23.46 bitrate= 731.8kbits/s speed= 6.9x    frame=33599 fps=199 q=29.0 size=  104192KiB time=00:19:27.16 bitrate= 731.3kbits/s speed= 6.9x    frame=33678 fps=198 q=28.0 size=  104192KiB time=00:19:30.30 bitrate= 729.3kbits/s speed=6.89x    frame=33774 fps=198 q=27.0 size=  104448KiB time=00:19:34.16 bitrate= 728.7kbits/s speed= 6.9x    frame=33870 fps=198 q=29.0 size=  104704KiB time=00:19:38.00 bitrate= 728.1kbits/s speed= 6.9x    frame=33997 fps=198 q=29.0 size=  104960KiB time=00:19:43.06 bitrate= 726.8kbits/s speed=6.91x    frame=34104 fps=198 q=29.0 size=  105216KiB time=00:19:47.36 bitrate= 725.9kbits/s speed=6.91x    frame=34227 fps=199 q=28.0 size=  105472KiB time=00:19:52.26 bitrate= 724.7kbits/s speed=6.92x    frame=34326 fps=199 q=27.0 size=  105728KiB time=00:19:56.23 bitrate= 724.0kbits/s speed=6.92x    frame=34433 fps=199 q=29.0 size=  105984KiB time=00:20:00.50 bitrate= 723.2kbits/s speed=6.92x    frame=34506 fps=198 q=28.0 size=  106240KiB time=00:20:03.43 bitrate= 723.2kbits/s speed=6.92x    frame=34614 fps=198 q=29.0 size=  106240KiB time=00:20:07.76 bitrate= 720.6kbits/s speed=6.92x    frame=34727 fps=199 q=29.0 size=  106496KiB time=00:20:12.26 bitrate= 719.7kbits/s speed=6.93x    frame=34832 fps=199 q=28.0 size=  106752KiB time=00:20:16.46 bitrate= 718.9kbits/s speed=6.93x    frame=34962 fps=199 q=28.0 size=  107008KiB time=00:20:21.66 bitrate= 717.6kbits/s speed=6.94x    frame=35046 fps=199 q=28.0 size=  107264KiB time=00:20:25.03 bitrate= 717.3kbits/s speed=6.94x    frame=35174 fps=199 q=27.0 size=  107520KiB time=00:20:30.16 bitrate= 716.0kbits/s speed=6.95x    frame=35286 fps=199 q=29.0 size=  107776KiB time=00:20:34.63 bitrate= 715.1kbits/s speed=6.96x    frame=35394 fps=199 q=29.0 size=  108288KiB time=00:20:38.96 bitrate= 716.0kbits/s speed=6.96x    frame=35478 fps=199 q=29.0 size=  108544KiB time=00:20:42.30 bitrate= 715.8kbits/s speed=6.96x    frame=35591 fps=199 q=29.0 size=  108800KiB time=00:20:46.83 bitrate= 714.8kbits/s speed=6.96x    frame=35704 fps=199 q=29.0 size=  109056KiB time=00:20:51.36 bitrate= 713.9kbits/s speed=6.97x    frame=35828 fps=199 q=29.0 size=  109312KiB time=00:20:56.30 bitrate= 712.8kbits/s speed=6.98x    frame=35931 fps=199 q=29.0 size=  109568KiB time=00:21:00.43 bitrate= 712.1kbits/s speed=6.98x    frame=36030 fps=199 q=29.0 size=  109824KiB time=00:21:04.40 bitrate= 711.5kbits/s speed=6.98x    frame=36138 fps=199 q=28.0 size=  110080KiB time=00:21:08.70 bitrate= 710.8kbits/s speed=6.99x    frame=36255 fps=199 q=29.0 size=  110592KiB time=00:21:13.40 bitrate= 711.5kbits/s speed=6.99x    frame=36396 fps=199 q=29.0 size=  110848KiB time=00:21:19.03 bitrate= 710.0kbits/s speed=   7x    frame=36532 fps=199 q=29.0 size=  111104KiB time=00:21:24.46 bitrate= 708.6kbits/s speed=7.01x    frame=36639 fps=199 q=29.0 size=  111360KiB time=00:21:28.76 bitrate= 707.9kbits/s speed=7.02x    frame=36702 fps=199 q=29.0 size=  111616KiB time=00:21:31.26 bitrate= 708.1kbits/s speed=7.01x    frame=36787 fps=199 q=29.0 size=  111872KiB time=00:21:34.66 bitrate= 707.9kbits/s speed=7.01x    frame=36858 fps=199 q=28.0 size=  112128KiB time=00:21:37.50 bitrate= 707.9kbits/s speed=   7x    frame=36940 fps=199 q=29.0 size=  112384KiB time=00:21:40.80 bitrate= 707.8kbits/s speed=   7x    frame=37025 fps=199 q=29.0 size=  112640KiB time=00:21:44.20 bitrate= 707.5kbits/s speed=   7x    frame=37088 fps=199 q=28.0 size=  112896KiB time=00:21:46.70 bitrate= 707.8kbits/s speed=   7x    frame=37167 fps=198 q=29.0 size=  112896KiB time=00:21:49.86 bitrate= 706.1kbits/s speed=6.99x    frame=37251 fps=198 q=27.0 size=  113152KiB time=00:21:53.23 bitrate= 705.8kbits/s speed=6.99x    frame=37312 fps=198 q=28.0 size=  113152KiB time=00:21:55.66 bitrate= 704.5kbits/s speed=6.99x    frame=37383 fps=198 q=28.0 size=  113152KiB time=00:21:58.50 bitrate= 703.0kbits/s speed=6.98x    frame=37443 fps=198 q=28.0 size=  113408KiB time=00:22:00.90 bitrate= 703.3kbits/s speed=6.98x    frame=37523 fps=198 q=28.0 size=  113408KiB time=00:22:04.10 bitrate= 701.6kbits/s speed=6.97x    frame=37586 fps=197 q=28.0 size=  113664KiB time=00:22:06.63 bitrate= 701.9kbits/s speed=6.97x    frame=37686 fps=197 q=29.0 size=  113664KiB time=00:22:10.63 bitrate= 699.8kbits/s speed=6.97x    frame=37770 fps=197 q=29.0 size=  113920KiB time=00:22:14.00 bitrate= 699.6kbits/s speed=6.97x    frame=37854 fps=197 q=27.0 size=  114176KiB time=00:22:17.36 bitrate= 699.4kbits/s speed=6.97x    frame=37938 fps=197 q=29.0 size=  114432KiB time=00:22:20.70 bitrate= 699.2kbits/s speed=6.97x    frame=38026 fps=197 q=28.0 size=  114688KiB time=00:22:24.23 bitrate= 698.9kbits/s speed=6.97x    frame=38105 fps=197 q=29.0 size=  114944KiB time=00:22:27.40 bitrate= 698.8kbits/s speed=6.96x    frame=38176 fps=197 q=28.0 size=  115200KiB time=00:22:30.23 bitrate= 698.9kbits/s speed=6.96x    frame=38264 fps=197 q=29.0 size=  115200KiB time=00:22:33.76 bitrate= 697.1kbits/s speed=6.96x    frame=38358 fps=197 q=28.0 size=  115456KiB time=00:22:37.50 bitrate= 696.7kbits/s speed=6.96x    frame=38459 fps=197 q=29.0 size=  115712KiB time=00:22:41.56 bitrate= 696.2kbits/s speed=6.96x    frame=38561 fps=197 q=27.0 size=  115968KiB time=00:22:45.63 bitrate= 695.7kbits/s speed=6.97x    frame=38664 fps=197 q=29.0 size=  116480KiB time=00:22:49.76 bitrate= 696.6kbits/s speed=6.97x    frame=38750 fps=197 q=29.0 size=  116736KiB time=00:22:53.20 bitrate= 696.4kbits/s speed=6.97x    frame=38838 fps=197 q=29.0 size=  116992KiB time=00:22:56.70 bitrate= 696.2kbits/s speed=6.97x    frame=38942 fps=197 q=27.0 size=  117248KiB time=00:23:00.86 bitrate= 695.6kbits/s speed=6.97x    frame=39046 fps=197 q=29.0 size=  117504KiB time=00:23:05.03 bitrate= 695.0kbits/s speed=6.97x    frame=39145 fps=197 q=29.0 size=  118016KiB time=00:23:09.00 bitrate= 696.0kbits/s speed=6.97x    frame=39246 fps=197 q=29.0 size=  118272KiB time=00:23:13.03 bitrate= 695.5kbits/s speed=6.98x    frame=39340 fps=196 q=29.0 size=  118528KiB time=00:23:16.80 bitrate= 695.1kbits/s speed=6.98x    frame=39428 fps=196 q=29.0 size=  118784KiB time=00:23:20.30 bitrate= 694.9kbits/s speed=6.98x    frame=39528 fps=196 q=28.0 size=  119296KiB time=00:23:24.30 bitrate= 695.9kbits/s speed=6.98x    frame=39651 fps=197 q=29.0 size=  119552KiB time=00:23:29.23 bitrate= 695.0kbits/s speed=6.99x    frame=39763 fps=197 q=28.0 size=  119808KiB time=00:23:33.70 bitrate= 694.3kbits/s speed=6.99x    frame=39844 fps=196 q=29.0 size=  120064KiB time=00:23:36.96 bitrate= 694.1kbits/s speed=6.99x    frame=39963 fps=197 q=29.0 size=  120320KiB time=00:23:41.70 bitrate= 693.3kbits/s speed=6.99x    frame=40074 fps=197 q=29.0 size=  120832KiB time=00:23:46.16 bitrate= 694.1kbits/s speed=   7x    frame=40182 fps=197 q=27.0 size=  121088KiB time=00:23:50.46 bitrate= 693.4kbits/s speed=   7x    frame=40294 fps=197 q=27.0 size=  121344KiB time=00:23:54.96 bitrate= 692.7kbits/s speed=7.01x    frame=40402 fps=197 q=28.0 size=  121600KiB time=00:23:59.26 bitrate= 692.1kbits/s speed=7.01x    frame=40497 fps=197 q=29.0 size=  121856KiB time=00:24:03.06 bitrate= 691.8kbits/s speed=7.01x    frame=40605 fps=197 q=29.0 size=  122368KiB time=00:24:07.40 bitrate= 692.6kbits/s speed=7.01x    frame=40711 fps=197 q=27.0 size=  122624KiB time=00:24:11.63 bitrate= 692.0kbits/s speed=7.02x    frame=40827 fps=197 q=29.0 size=  122880KiB time=00:24:16.26 bitrate= 691.2kbits/s speed=7.02x    frame=40969 fps=197 q=29.0 size=  123392KiB time=00:24:21.96 bitrate= 691.4kbits/s speed=7.03x    frame=41085 fps=197 q=29.0 size=  123648KiB time=00:24:26.60 bitrate= 690.7kbits/s speed=7.04x    frame=41185 fps=197 q=29.0 size=  123904KiB time=00:24:30.60 bitrate= 690.2kbits/s speed=7.04x    frame=41271 fps=197 q=28.0 size=  124160KiB time=00:24:34.03 bitrate= 690.0kbits/s speed=7.04x    frame=41378 fps=197 q=29.0 size=  124416KiB time=00:24:38.30 bitrate= 689.5kbits/s speed=7.04x    frame=41485 fps=197 q=29.0 size=  124672KiB time=00:24:42.60 bitrate= 688.9kbits/s speed=7.04x    frame=41584 fps=197 q=27.0 size=  125184KiB time=00:24:46.56 bitrate= 689.8kbits/s speed=7.04x    frame=41688 fps=197 q=28.0 size=  125440KiB time=00:24:50.70 bitrate= 689.3kbits/s speed=7.05x    frame=41797 fps=197 q=29.0 size=  125696KiB time=00:24:55.06 bitrate= 688.7kbits/s speed=7.05x    frame=41895 fps=197 q=29.0 size=  125952KiB time=00:24:59.00 bitrate= 688.3kbits/s speed=7.05x    frame=41990 fps=197 q=29.0 size=  126208KiB time=00:25:02.80 bitrate= 688.0kbits/s speed=7.05x    frame=42086 fps=197 q=28.0 size=  126464KiB time=00:25:06.63 bitrate= 687.6kbits/s speed=7.05x    frame=42183 fps=197 q=29.0 size=  126720KiB time=00:25:10.50 bitrate= 687.2kbits/s speed=7.05x    frame=42285 fps=197 q=29.0 size=  126976KiB time=00:25:14.60 bitrate= 686.8kbits/s speed=7.06x    frame=42402 fps=197 q=28.0 size=  127232KiB time=00:25:19.26 bitrate= 686.0kbits/s speed=7.06x    frame=42512 fps=197 q=29.0 size=  127744KiB time=00:25:23.66 bitrate= 686.8kbits/s speed=7.06x    frame=42604 fps=197 q=27.0 size=  128000KiB time=00:25:27.36 bitrate= 686.5kbits/s speed=7.06x    frame=42702 fps=197 q=29.0 size=  128256KiB time=00:25:31.26 bitrate= 686.1kbits/s speed=7.07x    frame=42798 fps=197 q=28.0 size=  128512KiB time=00:25:35.10 bitrate= 685.8kbits/s speed=7.07x    frame=42891 fps=197 q=29.0 size=  128768KiB time=00:25:38.83 bitrate= 685.5kbits/s speed=7.07x    frame=42995 fps=197 q=29.0 size=  129280KiB time=00:25:43.00 bitrate= 686.4kbits/s speed=7.07x    frame=43112 fps=197 q=29.0 size=  129536KiB time=00:25:47.66 bitrate= 685.7kbits/s speed=7.07x    frame=43222 fps=197 q=29.0 size=  129792KiB time=00:25:52.06 bitrate= 685.1kbits/s speed=7.08x    frame=43335 fps=197 q=29.0 size=  130304KiB time=00:25:56.60 bitrate= 685.8kbits/s speed=7.08x    frame=43444 fps=197 q=27.0 size=  130560KiB time=00:26:00.96 bitrate= 685.2kbits/s speed=7.09x    frame=43547 fps=197 q=27.0 size=  130816KiB time=00:26:05.06 bitrate= 684.7kbits/s speed=7.09x    frame=43661 fps=197 q=29.0 size=  131072KiB time=00:26:09.63 bitrate= 684.1kbits/s speed=7.09x    frame=43770 fps=197 q=29.0 size=  131328KiB time=00:26:14.00 bitrate= 683.5kbits/s speed=7.09x    frame=43860 fps=197 q=29.0 size=  131584KiB time=00:26:17.60 bitrate= 683.3kbits/s speed=7.09x    frame=43939 fps=197 q=29.0 size=  131840KiB time=00:26:20.76 bitrate= 683.2kbits/s speed=7.09x    frame=44029 fps=197 q=28.0 size=  132096KiB time=00:26:24.36 bitrate= 683.0kbits/s speed=7.09x    frame=44121 fps=197 q=29.0 size=  132352KiB time=00:26:28.03 bitrate= 682.7kbits/s speed=7.09x    frame=44226 fps=197 q=29.0 size=  132608KiB time=00:26:32.23 bitrate= 682.3kbits/s speed=7.09x    frame=44311 fps=197 q=27.0 size=  132864KiB time=00:26:35.63 bitrate= 682.1kbits/s speed=7.09x    frame=44418 fps=197 q=29.0 size=  133120KiB time=00:26:39.90 bitrate= 681.6kbits/s speed= 7.1x    frame=44532 fps=197 q=29.0 size=  133376KiB time=00:26:44.46 bitrate= 681.0kbits/s speed= 7.1x    frame=44624 fps=197 q=29.0 size=  133632KiB time=00:26:48.16 bitrate= 680.7kbits/s speed= 7.1x    frame=44698 fps=197 q=28.0 size=  133888KiB time=00:26:51.10 bitrate= 680.8kbits/s speed= 7.1x    frame=44833 fps=197 q=28.0 size=  134144KiB time=00:26:56.50 bitrate= 679.8kbits/s speed= 7.1x    frame=44944 fps=197 q=29.0 size=  134656KiB time=00:27:00.96 bitrate= 680.5kbits/s speed=7.11x    frame=45068 fps=197 q=28.0 size=  135168KiB time=00:27:05.90 bitrate= 681.0kbits/s speed=7.11x    frame=45170 fps=197 q=29.0 size=  135424KiB time=00:27:10.00 bitrate= 680.6kbits/s speed=7.12x    frame=45279 fps=197 q=29.0 size=  135936KiB time=00:27:14.36 bitrate= 681.4kbits/s speed=7.12x    frame=45365 fps=197 q=29.0 size=  136448KiB time=00:27:17.80 bitrate= 682.5kbits/s speed=7.12x    frame=45468 fps=197 q=29.0 size=  136704KiB time=00:27:21.90 bitrate= 682.1kbits/s speed=7.12x    frame=45576 fps=197 q=29.0 size=  137216KiB time=00:27:26.23 bitrate= 682.8kbits/s speed=7.12x    frame=45683 fps=197 q=28.0 size=  137728KiB time=00:27:30.50 bitrate= 683.6kbits/s speed=7.12x    frame=45801 fps=197 q=29.0 size=  138240KiB time=00:27:35.23 bitrate= 684.2kbits/s speed=7.13x    frame=45904 fps=197 q=29.0 size=  138496KiB time=00:27:39.36 bitrate= 683.7kbits/s speed=7.13x    frame=46022 fps=197 q=29.0 size=  139008KiB time=00:27:44.06 bitrate= 684.3kbits/s speed=7.14x    frame=46185 fps=198 q=29.0 size=  139520KiB time=00:27:50.60 bitrate= 684.2kbits/s speed=7.15x    frame=46427 fps=198 q=29.0 size=  139520KiB time=00:28:00.26 bitrate= 680.2kbits/s speed=7.17x    frame=46645 fps=199 q=29.0 size=  139520KiB time=00:28:09.00 bitrate= 676.7kbits/s speed=7.19x    frame=46790 fps=199 q=29.0 size=  139776KiB time=00:28:14.80 bitrate= 675.6kbits/s speed= 7.2x    frame=47013 fps=199 q=28.0 size=  139776KiB time=00:28:23.70 bitrate= 672.1kbits/s speed=7.23x    frame=47097 fps=199 q=29.0 size=  139776KiB time=00:28:27.06 bitrate= 670.8kbits/s speed=7.22x    frame=47206 fps=199 q=27.0 size=  139776KiB time=00:28:31.43 bitrate= 669.1kbits/s speed=7.23x    frame=47368 fps=200 q=29.0 size=  139776KiB time=00:28:37.90 bitrate= 666.5kbits/s speed=7.24x    frame=47521 fps=200 q=29.0 size=  139776KiB time=00:28:44.03 bitrate= 664.2kbits/s speed=7.25x    frame=47715 fps=200 q=29.0 size=  139776KiB time=N/A bitrate=N/A speed=N/A    [out#0/mp4 @ 000001552b64e9c0] video:115482KiB audio:24523KiB subtitle:0KiB other streams:0KiB global headers:0KiB muxing overhead: 1.378288%
frame=47763 fps=200 q=-1.0 Lsize=  141935KiB time=00:28:53.66 bitrate= 670.7kbits/s speed=7.27x    
[libx264 @ 000001552bda5800] frame I:251   Avg QP:19.84  size: 18084
[libx264 @ 000001552bda5800] frame P:12446 Avg QP:22.78  size:  5086
[libx264 @ 000001552bda5800] frame B:35066 Avg QP:26.34  size:  1438
[libx264 @ 000001552bda5800] consecutive B-frames:  1.5%  1.1%  2.3% 95.1%
[libx264 @ 000001552bda5800] mb I  I16..4: 14.8% 65.5% 19.7%
[libx264 @ 000001552bda5800] mb P  I16..4:  4.3% 11.0%  1.3%  P16..4: 32.8% 12.6%  4.7%  0.0%  0.0%    skip:33.3%
[libx264 @ 000001552bda5800] mb B  I16..4:  0.4%  0.9%  0.1%  B16..8: 33.1%  3.9%  0.4%  direct: 0.6%  skip:60.5%  L0:43.8% L1:52.1% BI: 4.1%
[libx264 @ 000001552bda5800] 8x8 transform intra:65.9% inter:87.1%
[libx264 @ 000001552bda5800] coded y,uvDC,uvAC intra: 45.4% 0.0% 0.0% inter: 8.3% 0.0% 0.0%
[libx264 @ 000001552bda5800] i16 v,h,dc,p: 40%  9%  4% 48%
[libx264 @ 000001552bda5800] i8 v,h,dc,ddl,ddr,vr,hd,vl,hu: 46%  9% 14%  3%  4% 10%  3%  8%  3%
[libx264 @ 000001552bda5800] i4 v,h,dc,ddl,ddr,vr,hd,vl,hu: 53%  8%  9%  3%  5% 10%  3%  6%  2%
[libx264 @ 000001552bda5800] i8c dc,h,v,p: 100%  0%  0%  0%
[libx264 @ 000001552bda5800] Weighted P-Frames: Y:0.7% UV:0.0%
[libx264 @ 000001552bda5800] ref P L0: 60.7% 13.0% 18.9%  7.3%  0.0%
[libx264 @ 000001552bda5800] ref B L0: 92.0%  6.1%  1.9%
[libx264 @ 000001552bda5800] ref B L1: 97.4%  2.6%
[libx264 @ 000001552bda5800] kb/s:545.64
[aac @ 000001552b6e51c0] Qavg: 28294.818
